<svg width="184" height="181" viewBox="0 0 184 181" fill="none" xmlns="http://www.w3.org/2000/svg">
<ellipse cx="92" cy="90.5" rx="92" ry="90.5" fill="black"/>
<path d="M35.0192 79.854V61.764C35.0192 57.2973 36.5379 53.8133 39.5752 51.312C42.6126 48.8107 46.6772 47.56 51.7692 47.56C56.9506 47.56 61.0599 48.7213 64.0972 51.044C67.1346 53.2773 68.6532 56.2253 68.6532 59.888V76.504C68.6532 78.112 67.4919 79.2287 65.1692 79.854C63.9186 80.2113 62.6679 80.39 61.4172 80.39C60.1666 80.39 58.9159 80.256 57.6652 79.988C57.9332 77.844 58.0672 75.566 58.0672 73.154V61.764C58.0672 60.0667 57.4866 58.7713 56.3252 57.878C55.1639 56.8953 53.6452 56.404 51.7692 56.404C49.8932 56.404 48.3746 56.8953 47.2132 57.878C46.1412 58.7713 45.6052 60.0667 45.6052 61.764V77.442C45.6052 80.5687 46.6326 82.7573 48.6872 84.008L62.8912 93.12C66.9112 95.6213 68.9212 99.4627 68.9212 104.644V123.136C68.9212 127.603 67.3579 131.087 64.2312 133.588C61.1046 136.089 56.9506 137.34 51.7692 137.34C46.6772 137.34 42.5679 136.223 39.4412 133.99C36.3146 131.667 34.7512 128.675 34.7512 125.012V108.396C34.7512 106.788 35.9126 105.671 38.2352 105.046C39.4859 104.689 40.7366 104.51 41.9872 104.51C43.2379 104.51 44.4886 104.644 45.7392 104.912C45.4712 107.056 45.3372 109.334 45.3372 111.746V123.136C45.3372 124.744 45.9626 126.039 47.2132 127.022C48.4639 128.005 50.0272 128.496 51.9032 128.496C53.7792 128.496 55.2979 128.005 56.4592 127.022C57.7099 126.039 58.3352 124.744 58.3352 123.136V107.994C58.3352 104.51 57.1292 102.009 54.7172 100.49L40.5132 91.244C36.8506 88.9213 35.0192 85.1247 35.0192 79.854ZM94.978 127.96C96.9433 119.116 98.6853 107.771 100.204 93.924C101.812 80.0773 102.616 69.8487 102.616 63.238C102.616 56.6273 102.303 51.848 101.678 48.9C104.983 48.5427 108.11 48.364 111.058 48.364C112.755 48.364 113.604 49.2573 113.604 51.044C113.604 62.3893 112.666 76.102 110.79 92.182C108.914 108.173 106.725 120.635 104.224 129.568C102.973 133.856 101.097 136 98.596 136H90.69C87.9206 136 86.0446 133.856 85.062 129.568C80.238 108.843 77.826 85.75 77.826 60.29C77.826 58.414 77.424 57.1187 76.62 56.404C75.9053 55.6 74.61 55.198 72.734 55.198C72.734 50.106 75.682 47.56 81.578 47.56C86.3126 47.56 88.68 50.642 88.68 56.806C88.68 68.6873 89.216 81.5067 90.288 95.264C91.4493 109.021 93.0126 119.92 94.978 127.96ZM144.715 48.9C147.931 48.9 150.343 48.6767 151.951 48.23C152.666 50.7313 153.023 53.188 153.023 55.6C153.023 57.0293 152.398 57.744 151.147 57.744H140.695V123.404L141.231 136C138.194 136.447 135.201 136.67 132.253 136.67C130.824 136.67 130.109 135.911 130.109 134.392V57.744H126.089C122.873 57.744 120.461 57.9673 118.853 58.414C118.138 55.9127 117.781 53.456 117.781 51.044C117.781 49.6147 118.406 48.9 119.657 48.9H144.715Z" fill="white"/>
</svg>
