<svg width="184" height="181" viewBox="0 0 184 181" fill="none" xmlns="http://www.w3.org/2000/svg">
<ellipse cx="92" cy="90.5" rx="92" ry="90.5" fill="black"/>
<path d="M27.3438 112.188C26.4323 111.667 25.638 111.12 24.9609 110.547C24.3099 109.974 23.9844 109.362 23.9844 108.711C23.9844 107.461 24.5182 106.836 25.5859 106.836C26.2891 106.836 27.0703 107.227 27.9297 108.008C28.7891 108.789 29.7526 109.479 30.8203 110.078C31.888 110.651 33.0469 111.146 34.2969 111.562C36.875 112.422 39.2578 112.852 41.4453 112.852C43.6328 112.852 45.3125 112.708 46.4844 112.422C47.6823 112.135 48.6849 111.745 49.4922 111.25C51.2109 110.182 52.0703 108.815 52.0703 107.148C52.0703 105.612 51.3281 104.062 49.8438 102.5C48.5938 101.172 46.8229 99.5833 44.5312 97.7344L37.8516 92.5C31.1589 87.3438 27.2135 82.6302 26.0156 78.3594C25.599 76.875 25.3906 75.2214 25.3906 73.3984C25.3906 71.5755 25.7943 69.7786 26.6016 68.0078C27.4349 66.237 28.6589 64.6875 30.2734 63.3594C33.737 60.4688 38.4505 59.0234 44.4141 59.0234C47.4609 59.0234 50.1953 59.4792 52.6172 60.3906C55.0391 61.276 56.6927 62.0703 57.5781 62.7734C58.4635 63.4766 58.9062 64.1146 58.9062 64.6875C58.9062 65.8854 58.4115 66.4844 57.4219 66.4844C56.849 66.4844 56.237 66.1979 55.5859 65.625C54.9349 65.0521 54.2057 64.5573 53.3984 64.1406C52.6172 63.6979 51.7188 63.3073 50.7031 62.9688C48.5156 62.2396 46.3672 61.875 44.2578 61.875C40.3776 61.875 38.4375 63.151 38.4375 65.7031C38.4375 66.7708 38.7891 67.7604 39.4922 68.6719C40.7422 70.2604 43.1771 72.5391 46.7969 75.5078C50.4427 78.4505 53.3594 81.0286 55.5469 83.2422C57.7604 85.4557 59.4401 87.4479 60.5859 89.2188C62.4089 92.0052 63.3203 94.9089 63.3203 97.9297C63.3203 100.924 62.7865 103.477 61.7188 105.586C60.6771 107.669 59.2057 109.466 57.3047 110.977C53.2943 114.154 48.3203 115.742 42.3828 115.742C36.4453 115.742 31.4323 114.557 27.3438 112.188ZM113.242 59.2969C114.31 59.2969 114.844 59.8568 114.844 60.9766C114.844 61.5495 114.661 62.2135 114.297 62.9688C113.958 63.6979 113.685 64.2969 113.477 64.7656L92.2656 117.148L66.5625 59.7266H87.8906L100.312 88.9453L109.023 67.1484C109.961 64.8047 110.573 63.112 110.859 62.0703C111.146 61.0286 111.458 60.3125 111.797 59.9219C112.135 59.5052 112.617 59.2969 113.242 59.2969ZM163.164 60.7422C163.164 61.9401 161.901 62.5391 159.375 62.5391H150.312V115H130.312V62.5391H124.453C122.448 62.5391 121.068 62.6302 120.312 62.8125C119.323 63.0208 118.607 63.125 118.164 63.125C116.836 63.125 116.172 62.6042 116.172 61.5625C116.172 60.3385 117.461 59.7266 120.039 59.7266H154.883C156.68 59.7266 158.008 59.6484 158.867 59.4922C159.909 59.3099 160.69 59.2188 161.211 59.2188C162.513 59.2188 163.164 59.7266 163.164 60.7422Z" fill="white"/>
</svg>
